<svg aria-hidden="true" style="position: absolute; width: 0; height: 0; overflow: hidden;" version="1.1" xmlns="http://www.w3.org/2000/svg" xmlns:xlink="http://www.w3.org/1999/xlink">
<defs>
<symbol id="icon-cloud-raindrops" viewBox="0 0 32 32">
<path d="M7.101 15.102c-1.776 0.41-3.101 2.002-3.101 3.898 0 2.209 1.798 4 4.003 4h16.994c2.211 0 4.003-1.795 4.003-4 0-1.877-1.299-3.453-3.042-3.884v0c0.028-0.202 0.042-0.407 0.042-0.616 0-2.485-2.015-4.5-4.5-4.5-1.226 0-2.337 0.49-3.148 1.285-0.991-1.949-3.015-3.285-5.352-3.285-3.314 0-6 2.686-6 6 0 0.377 0.035 0.745 0.101 1.102v0zM26.999 14.415c1.768 0.771 3.001 2.534 3.001 4.585 0 2.756-2.238 5-4.999 5h-17.001c-2.767 0-4.999-2.239-4.999-5 0-2.051 1.24-3.818 3.012-4.588v0c-0.008-0.136-0.012-0.273-0.012-0.412 0-3.866 3.134-7 7-7 2.298 0 4.337 1.107 5.614 2.817 0.839-0.518 1.828-0.817 2.886-0.817 3.009 0 5.454 2.416 5.499 5.415v0 0zM7 28.857v0c0 1.114 0.834 2.143 2.511 2.143s2.489-1.114 2.489-2.143c0-1.444-2.489-3.857-2.489-3.857s-2.511 2.414-2.511 3.857zM8.010 28.8c0-0.7 1.501-2.321 1.501-2.321s1.502 1.621 1.502 2.321c0 0.752-0.669 1.2-1.502 1.2s-1.501-0.325-1.501-1.2v0zM14 29.857v0c0 1.114 0.834 2.143 2.511 2.143s2.489-1.114 2.489-2.143c0-1.444-2.489-3.857-2.489-3.857s-2.511 2.414-2.511 3.857zM15.010 29.8c0-0.7 1.501-2.321 1.501-2.321s1.502 1.621 1.502 2.321c0 0.752-0.669 1.2-1.502 1.2s-1.501-0.325-1.501-1.2v0zM21 28.857v0c0 1.114 0.834 2.143 2.511 2.143s2.489-1.114 2.489-2.143c0-1.444-2.489-3.857-2.489-3.857s-2.511 2.414-2.511 3.857zM22.010 28.8c0-0.7 1.501-2.321 1.501-2.321s1.502 1.621 1.502 2.321c0 0.752-0.669 1.2-1.502 1.2s-1.501-0.325-1.501-1.2v0z"></path>
</symbol>
<symbol id="icon-cloud-fog" viewBox="0 0 32 32">
<path d="M3.014 20.382c-0.010-0.126-0.014-0.254-0.014-0.382 0-2.051 1.24-3.818 3.012-4.588v0c-0.008-0.136-0.012-0.273-0.012-0.412 0-0.133 0.004-0.265 0.011-0.395v0c-0.007-0.034-0.011-0.069-0.011-0.105 0-0.061 0.011-0.12 0.032-0.174 0.339-3.55 3.329-6.326 6.968-6.326 2.298 0 4.337 1.107 5.614 2.817 0.839-0.518 1.828-0.817 2.886-0.817 3.009 0 5.454 2.416 5.499 5.415v0c1.768 0.771 3.001 2.534 3.001 4.585 0 0.129-0.005 0.256-0.014 0.382 0.009 0.038 0.014 0.077 0.014 0.118 0 0.078-0.019 0.153-0.052 0.22-0.349 2.416-2.432 4.28-4.948 4.28h-17.001c-2.523 0-4.602-1.861-4.949-4.283-0.032-0.066-0.051-0.139-0.051-0.217 0-0.040 0.005-0.080 0.014-0.118v0zM4 20h25c0-0.345-0.044-0.68-0.126-1h-24.747c-0.083 0.32-0.127 0.655-0.127 1zM4.126 21c0.092 0.355 0.231 0.691 0.41 1v0h23.927c0.179-0.31 0.319-0.645 0.41-1h-24.747zM8.528 11c-0.274 0.307-0.518 0.642-0.725 1v0h10.395c-0.207-0.358-0.451-0.693-0.725-1h-8.944zM9.682 10h6.636c-0.95-0.632-2.091-1-3.318-1s-2.367 0.368-3.318 1zM7.35 12.975c-0.118 0.329-0.208 0.672-0.267 1.025v0h18.661c-0.126-0.356-0.295-0.691-0.502-1h-17.734c-0.055 0-0.108-0.009-0.158-0.025v0 0zM18.671 12h5.657c-0.773-0.625-1.757-1-2.829-1s-2.056 0.375-2.829 1zM7 15c0 0.341 0.028 0.675 0.083 1h18.89c0.018-0.164 0.027-0.331 0.027-0.5s-0.009-0.336-0.027-0.5h-18.973zM5.375 16.984c-0.332 0.29-0.617 0.633-0.839 1.016v0h23.927c-0.222-0.384-0.507-0.727-0.839-1.016-0.040 0.011-0.082 0.016-0.126 0.016h-21.996c-0.044 0-0.086-0.006-0.126-0.016v0 0zM5.357 23c0.706 0.622 1.633 1 2.645 1h16.994c1.014 0 1.941-0.378 2.646-1h-22.286z"></path>
</symbol>
<symbol id="icon-degree-celsius" viewBox="0 0 32 32">
<path d="M26 11.5c0 0.276 0.232 0.5 0.5 0.5 0.276 0 0.5-0.232 0.5-0.5v-0.505c0-2.759-2.229-4.995-5.002-4.995h-1.996c-2.763 0-5.002 2.236-5.002 4.995v10.010c0 2.759 2.229 4.995 5.002 4.995h1.996c2.763 0 5.002-2.236 5.002-4.995v-0.505c0-0.276-0.232-0.5-0.5-0.5-0.276 0-0.5 0.232-0.5 0.5v0.505c0 2.203-1.795 3.995-4.010 3.995h-1.98c-2.222 0-4.010-1.789-4.010-3.995v-10.010c0-2.203 1.795-3.995 4.010-3.995h1.98c2.222 0 4.010 1.789 4.010 3.995v0.505zM9 14v0c-2.209 0-4-1.791-4-4s1.791-4 4-4c2.209 0 4 1.791 4 4s-1.791 4-4 4zM9 13c1.657 0 3-1.343 3-3s-1.343-3-3-3c-1.657 0-3 1.343-3 3s1.343 3 3 3v0z"></path>
</symbol>
<symbol id="icon-thermometer-quarter" viewBox="0 0 32 32">
<path d="M16.986 23.166c1.172 0.408 2.014 1.523 2.014 2.834 0 1.657-1.343 3-3 3s-3-1.343-3-3c0-1.311 0.841-2.426 2.014-2.834-0.009-0.055-0.014-0.111-0.014-0.169v-4.994c0-0.565 0.448-1.003 1-1.003 0.556 0 1 0.449 1 1.003v4.994c0 0.058-0.005 0.114-0.014 0.169v0zM18 22.535v-18.532c0-1.107-0.888-2.004-2-2.004-1.105 0-2 0.89-2 2.004v18.532c-1.196 0.692-2 1.984-2 3.465 0 2.209 1.791 4 4 4s4-1.791 4-4c0-1.481-0.804-2.773-2-3.465zM19.969 21.5c1.246 1.099 2.031 2.708 2.031 4.5 0 3.314-2.686 6-6 6s-6-2.686-6-6c0-1.792 0.786-3.401 2.031-4.5-0.021-0.165-0.031-0.332-0.031-0.503v-16.994c0-2.205 1.791-4.003 4-4.003 2.205 0 4 1.792 4 4.003v16.994c0 0.17-0.011 0.338-0.031 0.503v0 0z"></path>
</symbol>
<symbol id="icon-location2" viewBox="0 0 32 32">
<path d="M16 0c-5.523 0-10 4.477-10 10 0 10 10 22 10 22s10-12 10-22c0-5.523-4.477-10-10-10zM16 16.125c-3.383 0-6.125-2.742-6.125-6.125s2.742-6.125 6.125-6.125 6.125 2.742 6.125 6.125-2.742 6.125-6.125 6.125zM12.125 10c0-2.14 1.735-3.875 3.875-3.875s3.875 1.735 3.875 3.875c0 2.14-1.735 3.875-3.875 3.875s-3.875-1.735-3.875-3.875z"></path>
</symbol>
<symbol id="icon-search" viewBox="0 0 32 32">
<path d="M19.427 20.427c-1.39 0.99-3.090 1.573-4.927 1.573-4.694 0-8.5-3.806-8.5-8.5s3.806-8.5 8.5-8.5c4.694 0 8.5 3.806 8.5 8.5 0 2.347-0.951 4.472-2.49 6.010l5.997 5.997c0.275 0.275 0.268 0.716-0.008 0.992-0.278 0.278-0.72 0.28-0.992 0.008l-6.081-6.081zM14.5 21c4.142 0 7.5-3.358 7.5-7.5s-3.358-7.5-7.5-7.5c-4.142 0-7.5 3.358-7.5 7.5s3.358 7.5 7.5 7.5v0z"></path>
</symbol>
<symbol id="icon-cloud-wind" viewBox="0 0 32 32">
<path d="M7.101 9.102c-1.776 0.41-3.101 2.002-3.101 3.898 0 2.209 1.798 4 4.003 4h16.994c2.211 0 4.003-1.795 4.003-4 0-1.877-1.299-3.453-3.042-3.884v0c0.028-0.202 0.042-0.407 0.042-0.616 0-2.485-2.015-4.5-4.5-4.5-1.226 0-2.337 0.49-3.148 1.285-0.991-1.949-3.015-3.285-5.352-3.285-3.314 0-6 2.686-6 6 0 0.377 0.035 0.745 0.101 1.102v0 0zM26.999 8.415c1.768 0.771 3.001 2.534 3.001 4.585 0 2.756-2.238 5-4.999 5h-17.001c-2.767 0-4.999-2.239-4.999-5 0-2.051 1.24-3.818 3.012-4.588v0c-0.008-0.136-0.012-0.273-0.012-0.412 0-3.866 3.134-7 7-7 2.298 0 4.337 1.107 5.614 2.817 0.839-0.518 1.828-0.817 2.886-0.817 3.009 0 5.454 2.416 5.499 5.415v0 0zM30 23c0-2.209-1.795-4-4-4-2.209 0-4 1.789-4 4h1c0-1.657 1.347-3 3-3 1.657 0 3 1.347 3 3 0 1.657-1.343 3-3.008 3h-22.992v1h23.002c2.208 0 3.998-1.795 3.998-4v0zM21 22c0-1.657-1.347-3-3-3-1.657 0-3 1.342-3 2.991v0.009h1c0-1.105 0.888-2 2-2 1.105 0 2 0.888 2 2 0 1.105-0.897 2-2.006 2h-11.994v1h12.001c1.657 0 2.999-1.347 2.999-3v0zM25 30c0 1.105-0.888 2-2 2v0c-1.105 0-2-0.895-2-1.994v-0.006h1c0 0.552 0.444 1 1 1v0c0.552 0 1-0.444 1-1v0c0-0.552-0.449-1-1.007-1h-13.993v-1h14.006c1.101 0 1.994 0.888 1.994 2v0 0z"></path>
</symbol>
<symbol id="icon-sunrise" viewBox="0 0 32 32">
<path d="M11.101 18c0.465-2.283 2.48-4 4.9-4s4.435 1.717 4.899 4h2c-0.49-3.383-3.38-6-6.898-6-3.517 0-6.409 2.617-6.898 6h1.999zM16.001 10c0.552 0 1-0.448 1-1v-2c0-0.552-0.448-1-1-1s-1 0.448-1 1v2c0 0.552 0.448 1 1 1zM25.192 9.807c-0.391-0.391-1.023-0.391-1.414 0l-1.414 1.414c-0.391 0.391-0.391 1.023 0 1.414s1.023 0.391 1.414 0l1.414-1.414c0.391-0.391 0.391-1.023 0-1.414zM9.636 11.221l-1.414-1.414c-0.391-0.391-1.023-0.391-1.414 0s-0.391 1.023 0 1.414l1.414 1.414c0.391 0.391 1.024 0.391 1.414 0s0.391-1.023 0-1.414zM22.001 20h-12c-0.552 0-1 0.448-1 1s0.448 1 1 1h12c0.552 0 1-0.448 1-1s-0.448-1-1-1zM20.001 24h-8c-0.552 0-1 0.448-1 1s0.448 1 1 1h8c0.552 0 1-0.448 1-1s-0.448-1-1-1z"></path>
</symbol>
<symbol id="icon-sunset" viewBox="0 0 32 32">
<path d="M16 5.938c0.552 0 1-0.448 1-1v-2c0-0.552-0.448-1-1-1s-1 0.448-1 1v2c0 0.552 0.448 1 1 1zM23.777 8.573l1.414-1.414c0.391-0.391 0.391-1.023 0-1.414s-1.023-0.391-1.414 0l-1.414 1.414c-0.391 0.391-0.391 1.023 0 1.414s1.023 0.391 1.414 0zM4 15.938h2c0.552 0 1-0.448 1-1s-0.448-1-1-1h-2c-0.552 0-1 0.448-1 1s0.448 1 1 1zM25 14.938c0 0.552 0.448 1 1 1h2c0.552 0 1-0.448 1-1s-0.448-1-1-1h-2c-0.552 0-1 0.448-1 1zM8.221 8.573c0.391 0.391 1.024 0.391 1.414 0s0.391-1.023 0-1.414l-1.414-1.414c-0.391-0.391-1.023-0.391-1.414 0s-0.391 1.023 0 1.414l1.414 1.414zM9.102 15.938h2c-0.066-0.323-0.102-0.658-0.102-1 0-2.762 2.238-5 5-5s5 2.238 5 5c0 0.342-0.035 0.677-0.102 1h2c0.049-0.329 0.102-0.658 0.102-1 0-3.859-3.141-7-7-7s-7 3.141-7 7c0 0.342 0.055 0.671 0.102 1zM28 17.938h-24c-0.552 0-1 0.448-1 1s0.448 1 1 1h24c0.552 0 1-0.448 1-1s-0.448-1-1-1zM28 21.938h-24c-0.552 0-1 0.448-1 1s0.448 1 1 1h24c0.552 0 1-0.448 1-1s-0.448-1-1-1zM28 25.938h-24c-0.552 0-1 0.448-1 1s0.448 1 1 1h24c0.552 0 1-0.448 1-1s-0.448-1-1-1z"></path>
</symbol>
</defs>
</svg>
